<svg width="25" height="14" viewBox="0 0 25 14" fill="none" xmlns="http://www.w3.org/2000/svg">
<path d="M24.26 14H23.48C22.64 14 22.32 13.78 22.18 12.86L20.6 3.12C20.52 2.5 20.26 2.2 19.4 2.2C18.52 2.2 18.32 2.48 18.12 3.08L15.66 11.06C15.44 11.86 15.1 12.4 14.78 12.62C14.36 12.92 13.68 13.06 12.44 13.06C11.36 13.06 10.44 12.94 10 12.62C9.62 12.38 9.36 11.76 9.18 11.04L6.88 3.2C6.66 2.4 6.42 2.2 5.64 2.2C4.78 2.2 4.52 2.42 4.36 3.36L2.74 12.98C2.6 13.76 2.22 14 1.46 14H0.64C0.42 14 0.32 13.84 0.36 13.56L2.3 2.82C2.48 1.76 2.72 1.2 3.16 0.86C3.58 0.559999 4.36 0.4 5.7 0.4C6.84 0.4 7.6 0.5 8 0.759999C8.38 1.02 8.64 1.5 8.94 2.54L11.2 10.34C11.42 11.04 11.64 11.3 12.44 11.3C13.3 11.3 13.52 11 13.72 10.36L16.12 2.52C16.38 1.62 16.68 1.1 17.12 0.799999C17.52 0.539999 18.42 0.4 19.64 0.4C21 0.4 21.7 0.559999 22.06 0.799999C22.38 1.02 22.7 1.52 22.82 2.4L24.62 13.6C24.66 13.86 24.46 14 24.26 14Z" fill="#EA1C24"/>
</svg>
