<svg width="80" height="80" viewBox="0 0 80 80" fill="none" xmlns="http://www.w3.org/2000/svg">
<circle cx="40" cy="40" r="39" fill="black" stroke="black" stroke-width="2"/>
<circle cx="40" cy="40" r="34.5" fill="white" stroke="black"/>
<path d="M25.2873 40.65C25.2873 41.7 25.4973 42.35 25.8773 42.66C26.2473 42.98 26.8973 43.12 28.7673 43.12C30.0573 43.12 31.0073 43.01 31.6073 42.94C31.6973 42.93 31.7773 42.99 31.7773 43.09C31.7773 43.25 31.5073 43.67 31.2673 43.8C30.9873 43.96 30.0273 44.09 28.4273 44.09C26.2873 44.09 25.4373 43.82 24.9073 43.35C24.4773 42.95 24.1373 42.18 24.1373 40.71C24.1373 39.25 24.5673 38.35 25.1373 37.9C25.6173 37.48 26.5173 37.16 28.5473 37.16C30.0773 37.16 30.9673 37.27 31.2673 37.41C31.4973 37.54 31.7473 37.91 31.7473 38.1C31.7473 38.21 31.6273 38.27 31.5473 38.26C30.9273 38.19 29.9973 38.09 28.6673 38.09C27.1673 38.09 26.3773 38.27 25.9673 38.58C25.5373 38.92 25.2873 39.63 25.2873 40.65ZM37.6191 43.72V37.38C37.6191 37.29 37.6591 37.24 37.7591 37.24H38.3891C38.6591 37.24 38.7491 37.29 38.7491 37.59L38.7591 42.78C38.7591 43.01 38.8691 43.06 39.1491 43.06C39.4991 43.08 40.3591 43.09 41.3191 43.09C42.8591 43.09 43.9691 43.04 44.6291 43.02C44.7591 43.02 44.8291 43.09 44.8191 43.2C44.8091 43.43 44.5191 43.82 44.2891 43.92C44.0491 44 42.9991 44.02 41.4491 44.02C40.1891 44.02 38.7591 44.02 37.9391 43.99C37.8191 43.99 37.6191 43.95 37.6191 43.72ZM50.6409 40.65C50.6409 41.7 50.8509 42.35 51.2309 42.66C51.6009 42.98 52.2509 43.12 54.1209 43.12C55.4109 43.12 56.3609 43.01 56.9609 42.94C57.0509 42.93 57.1309 42.99 57.1309 43.09C57.1309 43.25 56.8609 43.67 56.6209 43.8C56.3409 43.96 55.3809 44.09 53.7809 44.09C51.6409 44.09 50.7909 43.82 50.2609 43.35C49.8309 42.95 49.4909 42.18 49.4909 40.71C49.4909 39.25 49.9209 38.35 50.4909 37.9C50.9709 37.48 51.8709 37.16 53.9009 37.16C55.4309 37.16 56.3209 37.27 56.6209 37.41C56.8509 37.54 57.1009 37.91 57.1009 38.1C57.1009 38.21 56.9809 38.27 56.9009 38.26C56.2809 38.19 55.3509 38.09 54.0209 38.09C52.5209 38.09 51.7309 38.27 51.3209 38.58C50.8909 38.92 50.6409 39.63 50.6409 40.65Z" fill="#EA1C24"/>
</svg>
